<?xml version="1.0" encoding="utf-8"?>
<!-- Generator: Adobe Illustrator 16.0.3, SVG Export Plug-In . SVG Version: 6.00 Build 0)  -->
<!DOCTYPE svg PUBLIC "-//W3C//DTD SVG 1.1//EN" "http://www.w3.org/Graphics/SVG/1.1/DTD/svg11.dtd">
<svg version="1.1" id="Layer_1" xmlns="http://www.w3.org/2000/svg" xmlns:xlink="http://www.w3.org/1999/xlink" x="0px" y="0px"
	 width="256px" height="56px" viewBox="0 0 256 56" enable-background="new 0 0 256 56" xml:space="preserve">
<g>
	<rect x="4" y="5" fill="none" width="246" height="53"/>
	<path fill="#050505" d="M9.436,7.437h12.586c10.498,0,15.602,7.134,15.602,20.241c0,13.108-5.104,20.242-15.602,20.242H9.436V7.437
		z M21.5,41.83c5.568,0,8.178-3.77,8.178-10.672v-7.018c0-6.844-2.61-10.614-8.178-10.614h-4.582V41.83H21.5z"/>
	<path fill="#050505" d="M68.42,47.92c-3.596,0-5.626-1.972-5.974-5.162h-0.29c-1.102,3.712-4.408,5.858-9.047,5.858
		c-5.974,0-9.86-3.364-9.86-8.99c0-6.031,4.466-9.048,13.282-9.048h5.278v-1.972c0-3.77-1.798-5.742-5.916-5.742
		c-3.77,0-5.916,1.624-7.54,3.944l-4.234-3.596c1.856-3.306,6.032-5.916,12.528-5.916c7.83,0,12.586,3.77,12.586,10.962v14.093
		h3.538v5.568H68.42z M61.809,38.872V34.87h-5.104c-4.06,0-6.09,1.334-6.09,3.828v1.16c0,2.378,1.914,3.653,4.988,3.653
		C59.141,43.512,61.809,41.714,61.809,38.872z"/>
	<path fill="#050505" d="M94.23,47.92c-5.684,0-8.352-3.364-8.352-8.12V23.851h-8.7v-5.858h5.916c2.378,0,3.306-0.812,3.306-3.306
		v-7.25h6.902v10.556h12.18v5.858h-12.18v18.212h12.18v5.857H94.23z"/>
	<path fill="#050505" d="M130.77,13.701V47.92h-7.54V13.701h-12.18V7.437h31.899v6.264H130.77z"/>
	<path fill="#050505" d="M148.749,42.063h7.424V23.851h-7.424v-5.858h14.848v8.178h0.464c1.103-4.234,3.654-8.178,9.628-8.178h3.248
		v6.96h-6.147c-4.698,0-7.192,3.19-7.192,7.018v10.092h10.382v5.857h-25.229V42.063z"/>
	<path fill="#050505" d="M207.618,47.92c-3.596,0-5.625-1.972-5.974-5.162h-0.29c-1.102,3.712-4.407,5.858-9.048,5.858
		c-5.974,0-9.859-3.364-9.859-8.99c0-6.031,4.466-9.048,13.281-9.048h5.278v-1.972c0-3.77-1.798-5.742-5.916-5.742
		c-3.77,0-5.916,1.624-7.54,3.944l-4.233-3.596c1.855-3.306,6.031-5.916,12.527-5.916c7.83,0,12.586,3.77,12.586,10.962v14.093
		h3.538v5.568H207.618z M201.007,38.872V34.87h-5.104c-4.06,0-6.09,1.334-6.09,3.828v1.16c0,2.378,1.914,3.653,4.988,3.653
		C198.339,43.512,201.007,41.714,201.007,38.872z"/>
	<path fill="#050505" d="M218.349,47.92V17.993h7.424v5.278h0.29c1.334-3.248,3.886-5.974,8.758-5.974
		c5.858,0,9.918,4.06,9.918,11.31V47.92h-7.424V29.65c0-4.292-1.914-6.496-5.626-6.496c-3.016,0-5.916,1.566-5.916,4.756v20.01
		H218.349z"/>
</g>
<g>
</g>
<g>
</g>
<g>
</g>
<g>
</g>
<g>
</g>
<g>
</g>
<g>
</g>
<g>
</g>
<g>
</g>
<g>
</g>
<g>
</g>
<g>
</g>
<g>
</g>
<g>
</g>
<g>
</g>
</svg>
